Coordinates
version=1
nRows=14
nColumns=40
inDegrees=yes

Units are S.I. units (second, meters, Newtons, ...)
If the header above contains a line with 'inDegrees', this indicates whether rotational values are in degrees (yes) or radians (no).

endheader
time	pelvis_tilt	pelvis_list	pelvis_rotation	pelvis_tx	pelvis_ty	pelvis_tz	hip_flexion_r	hip_adduction_r	hip_rotation_r	knee_angle_r	knee_angle_r_beta	ankle_angle_r	subtalar_angle_r	mtp_angle_r	hip_flexion_l	hip_adduction_l	hip_rotation_l	knee_angle_l	knee_angle_l_beta	ankle_angle_l	subtalar_angle_l	mtp_angle_l	lumbar_extension	lumbar_bending	lumbar_rotation	arm_flex_r	arm_add_r	arm_rot_r	elbow_flex_r	pro_sup_r	wrist_flex_r	wrist_dev_r	arm_flex_l	arm_add_l	arm_rot_l	elbow_flex_l	pro_sup_l	wrist_flex_l	wrist_dev_l
      5.20000000	     11.03229898	     -1.37501241	     -0.46407940	     -0.40818552	      1.19995760	      0.01411375	     22.44598063	     -1.64981052	      0.32619063	     40.92252903	      0.71423287	     -3.58627852	    -25.05386423	      0.00000000	     66.20870907	      0.29132171	     12.43808240	    109.91914698	      1.91845103	     10.69308620	    -25.43423283	      0.00000000	    -72.83486742	      2.48207212	      5.69134459	     79.19263778	     -6.12217864	      0.28072501	     47.40297633	     12.17281568	      0.00000000	      0.00000000	     89.88647060	      0.19307762	     27.07335629	     24.24017269	     84.58469247	      0.00000000	      0.00000000
      5.20833333	     11.12122744	     -1.52255419	     -0.48281825	     -0.40834566	      1.20051481	      0.01428713	     22.16949081	     -1.50679537	      0.25676767	     41.51566982	      0.72458513	     -3.59757389	    -25.05533164	      0.00000000	     66.46800563	      0.16568353	     12.48270955	    109.18365227	      1.90561422	     10.66094341	    -25.44135391	      0.00000000	    -72.97126020	      2.48249538	      5.81362588	     79.21683979	     -6.11132083	      0.27233811	     47.41106603	     12.17906449	      0.00000000	      0.00000000	     89.88796537	      0.18092811	     27.03495773	     24.29511056	     84.58748206	      0.00000000	      0.00000000
      5.21666667	     11.27877302	     -1.66239652	     -0.53988378	     -0.40838060	      1.20063083	      0.01462858	     22.12241621	     -1.39599389	      0.14509380	     42.71463141	      0.74551096	     -3.47495725	    -25.21146410	      0.00000000	     66.60314307	      0.04316989	     12.59543100	    108.56770119	      1.89486385	     10.61679131	    -25.51161419	      0.00000000	    -73.11594842	      2.41593525	      5.96481002	     79.22896444	     -6.14558983	      0.22466462	     47.35336522	     12.19793547	      0.00000000	      0.00000000	     89.88633743	      0.22134244	     26.95060331	     24.40340046	     84.59802054	      0.00000000	      0.00000000
      5.22500000	     10.97102056	     -1.55935205	     -0.69612208	     -0.40871842	      1.20003931	      0.01493273	     22.71338261	     -1.45577416	      0.35164221	     44.03103796	      0.76848659	     -3.25977109	    -25.50768522	      0.00000000	     67.17547601	     -0.03664562	     12.34512728	    107.68697391	      1.87949226	     10.74659513	    -25.77548536	      0.00000000	    -72.78836062	      2.19272401	      5.89872866	     79.18748105	     -6.11627815	      0.10470566	     47.33855344	     12.26554790	      0.00000000	      0.00000000	     89.88734853	      0.27878092	     26.86114896	     24.32052867	     84.67685041	      0.00000000	      0.00000000
      5.23333333	     11.10054589	     -1.75195963	     -0.70201759	     -0.40877906	      1.20041895	      0.01524265	     22.70180680	     -1.28840158	      0.24310547	     45.18447820	      0.78861792	     -3.19466501	    -25.58117747	      0.00000000	     67.10259137	     -0.17991346	     12.46140669	    106.73926697	      1.86295165	     10.76712081	    -25.89119763	      0.00000000	    -72.93971227	      2.21014909	      6.08531350	     79.21108891	     -6.12887912	      0.06921511	     47.32505263	     12.28038416	      0.00000000	      0.00000000	     89.88816630	      0.29046294	     26.81268670	     24.42719078	     84.68802981	      0.00000000	      0.00000000
      5.24166667	     10.92673377	     -1.67047918	     -0.79811528	     -0.40904310	      1.20015873	      0.01549315	     23.21845152	     -1.37484741	      0.35680221	     46.64096264	      0.81403836	     -2.87400205	    -25.77348430	      0.00000000	     67.28048397	     -0.22020548	     12.23896826	    105.76233802	      1.84590102	     10.80883996	    -26.35192502	      0.00000000	    -72.76133290	      2.04931853	      6.03269401	     79.20631504	     -6.10944978	     -0.03294875	     47.28608333	     12.33455776	      0.00000000	      0.00000000	     89.88982829	      0.32604648	     26.77988197	     24.41523861	     84.73889707	      0.00000000	      0.00000000
      5.25000000	     10.87802046	     -1.63471978	     -0.85546526	     -0.40921523	      1.20018773	      0.01567466	     23.59168274	     -1.47460921	      0.32401659	     48.09398449	      0.83939838	     -2.61923339	    -25.66325681	      0.00000000	     67.15610904	     -0.25942840	     12.15268878	    104.74626542	      1.82816721	     10.91280674	    -26.73492035	      0.00000000	    -72.71731659	      1.94932125	      5.99732167	     79.19418019	     -5.97998202	     -0.39078366	     47.30539702	     13.23992314	      0.00000000	      0.00000000	     89.89040123	      0.32034916	     26.67690506	     24.47676238	     84.98269166	      0.00000000	      0.00000000
      5.25833333	     11.01347786	     -1.86173838	     -0.81666875	     -0.40929250	      1.20056453	      0.01596155	     23.72737153	     -1.29942813	      0.20199277	     49.48479369	      0.86367258	     -2.47014597	    -25.72798998	      0.00000000	     66.81740047	     -0.38067384	     12.32265851	    103.57675518	      1.80775541	     11.09056310	    -26.73023200	      0.00000000	    -72.87496908	      2.03000031	      6.22116139	     79.24075908	     -6.01231505	     -0.40110764	     47.25393138	     13.20902849	      0.00000000	      0.00000000	     89.89098363	      0.34671909	     26.62604993	     24.57561142	     84.95199747	      0.00000000	      0.00000000
      5.26666667	     11.11070744	     -2.08792078	     -0.79383768	     -0.40931985	      1.20081202	      0.01637239	     23.97629746	     -1.12970672	      0.06084569	     50.96718662	      0.88954522	     -2.26402085	    -25.77619446	      0.00000000	     66.43484766	     -0.58608359	     12.45995854	    102.22096777	      1.78409245	     11.37465884	    -26.75776415	      0.00000000	    -72.98273730	      2.08815559	      6.43659289	     79.26715483	     -6.03034616	     -0.41361942	     47.21012517	     13.17906979	      0.00000000	      0.00000000	     89.89262379	      0.35872349	     26.57870520	     24.65051678	     84.94066617	      0.00000000	      0.00000000
      5.27500000	     10.97527281	     -1.92120708	     -1.00979445	     -0.40952224	      1.20074047	      0.01670590	     24.66316604	     -1.28860590	      0.32036033	     52.68718055	      0.91956477	     -1.95875914	    -25.83506991	      0.00000000	     66.12476140	     -0.74544210	     12.11204320	    100.83790674	      1.75995348	     11.51877094	    -27.21378335	      0.00000000	    -72.85344520	      1.80628773	      6.33902648	     79.25227992	     -5.77789598	     -1.13705273	     47.24369057	     14.89414687	      0.00000000	      0.00000000	     89.89385167	      0.46831215	     26.12684717	     24.57737901	     84.93911245	      0.00000000	      0.00000000
      5.28333333	     11.00878942	     -1.96803249	     -0.92645208	     -0.40956509	      1.20073534	      0.01678987	     25.13534359	     -1.39980834	      0.14315485	     54.41478179	      0.94971710	     -1.44275915	    -25.30929337	      0.00000000	     65.60936310	     -0.75096125	     12.06231181	     99.47472272	      1.73616143	     11.82871832	    -27.21681840	      0.00000000	    -72.86830058	      1.89223367	      6.33484041	     79.28311167	     -5.68602513	     -1.28917637	     47.17819213	     15.81560342	      0.00000000	      0.00000000	     89.89573423	      0.26898820	     27.23814343	     24.74487950	     83.58873099	      0.00000000	      0.00000000
      5.29166667	     10.99323581	     -2.09088534	     -0.97652051	     -0.40968022	      1.20080352	      0.01718221	     25.70556454	     -1.32688695	      0.12434844	     56.14386029	      0.97989522	     -1.16215011	    -25.19294157	      0.00000000	     65.09477251	     -1.00249730	     12.03046037	     97.81722418	      1.70723263	     11.77906383	    -27.33488762	      0.00000000	    -72.86578735	      1.86345080	      6.48687595	     79.30872335	     -5.98443358	     -0.52401647	     47.07887830	     13.17280958	      0.00000000	      0.00000000	     89.89622905	      0.42996078	     26.37195885	     24.65147374	     85.11173038	      0.00000000	      0.00000000
      5.30000000	     11.05949474	     -2.18571579	     -0.99451190	     -0.40972186	      1.20099595	      0.01749412	     26.22457402	     -1.28975177	      0.11027186	     57.90972033	      1.01071529	     -0.97005803	    -25.18665668	      0.00000000	     64.39922664	     -1.20570373	     11.95670680	     96.25202855	      1.67991481	     11.93268041	    -27.47102295	      0.00000000	    -72.93829926	      1.86197575	      6.58251673	     79.32765151	     -5.99089774	     -0.48307110	     47.05697558	     12.65644506	      0.00000000	      0.00000000	     89.89696901	      0.44751220	     26.34188213	     24.64804762	     85.04080153	      0.00000000	      0.00000000
      5.30833333	     11.14543062	     -2.18299203	     -0.99953064	     -0.40973506	      1.20122650	      0.01777502	     26.78181915	     -1.37220429	      0.11233718	     59.73687293	      1.04260512	     -0.78147866	    -25.07542741	      0.00000000	     63.52912573	     -1.35437765	     11.79608477	     94.58963926	      1.65090064	     12.20150852	    -27.66368634	      0.00000000	    -73.02415008	      1.84415733	      6.55032107	     79.36148939	     -5.85860941	     -0.73530676	     47.03296751	     13.66808656	      0.00000000	      0.00000000	     89.89728411	      0.41915982	     26.25163702	     24.66366116	     85.27207824	      0.00000000	      0.00000000
